<svg id="Layer_1" enable-background="new 0 0 512 512" height="512" viewBox="0 0 512 512" width="512" xmlns="http://www.w3.org/2000/svg"><g><g><g><path d="m400 432h-352c-17.673 0-32-14.327-32-32v-224c0-17.673 14.327-32 32-32h352c17.673 0 32 14.327 32 32v224c0 17.673-14.327 32-32 32z" fill="#23aae6"/></g><g><path d="m368 432h-320c-17.673 0-32-14.327-32-32v-224c0-17.673 14.327-32 32-32h320c17.673 0 32 14.327 32 32v224c0 17.673-14.327 32-32 32z" fill="#5ad7ff"/></g><g><path d="m360 400h-304c-4.418 0-8-3.582-8-8v-208c0-4.418 3.582-8 8-8h304c4.418 0 8 3.582 8 8v208c0 4.418-3.582 8-8 8z" fill="#463c4b"/></g></g><g><g><path d="m184 432h72v32h-72z" fill="#463c4b"/></g><g><path d="m184 448h48v16h-48z" fill="#555a6e"/></g><g><path d="m328 496h-216c-4.418 0-8-3.582-8-8v-8c0-8.837 7.163-16 16-16h200c8.837 0 16 7.163 16 16v8c0 4.418-3.582 8-8 8z" fill="#555a6e"/></g><g><path d="m328 496h-32c-4.418 0-8-3.582-8-8v-8c0-8.837 7.163-16 16-16h16c8.837 0 16 7.163 16 16v8c0 4.418-3.582 8-8 8z" fill="#463c4b"/></g></g><g><g><path d="m232 288h-40v24h-88v-136c0-35.346 28.654-64 64-64h32c35.346 0 64 28.654 64 64v80c0 17.673-14.327 32-32 32z" fill="#fab991"/></g><g><path d="m192 312h-88c0-13.255 10.745-24 24-24h64z" fill="#f0915a"/></g><g><circle cx="216" cy="200" fill="#463c4b" r="8"/></g><g><circle cx="248" cy="200" fill="#463c4b" r="8"/></g><g><path d="m240 240c-4.418 0-8-3.582-8-8v-24c8.837 0 16 7.163 16 16v8c0 4.418-3.582 8-8 8z" fill="#f0915a"/></g><g><path d="m232 264h8c4.418 0 8-3.582 8-8h-24c0 4.418 3.582 8 8 8z" fill="#463c4b"/></g><g><path d="m88 176v80c0 8.837 7.163 16 16 16h40c8.837 0 16-7.163 16-16v-32c8.837 0 16-7.163 16-16v-16c0-8.837 7.163-16 16-16h56c17.673 0 32-14.327 32-32 0-17.673-14.327-32-32-32h-96c-35.346 0-64 28.654-64 64z" fill="#463c4b"/></g><g><path d="m160 200c-13.255 0-24 10.745-24 24s10.745 24 24 24z" fill="#f0915a"/></g><g><path d="m264 400h-200v-56c0-17.673 14.327-32 32-32h136c17.673 0 32 14.327 32 32z" fill="#e1322d"/></g><g><path d="m192 312h-48c17.673 0 32 14.327 32 32v56h48v-56c0-17.673-14.327-32-32-32z" fill="#d7e6f0"/></g><g><path d="m128 400h-64v-56c0-17.673 14.327-32 32-32 17.673 0 32 14.327 32 32z" fill="#f04b37"/></g></g><g><g><g><path d="m374.627 185.373c-4.095 0-8.189-1.562-11.313-4.686-3.022-3.023-7.04-4.687-11.314-4.687s-8.292 1.664-11.314 4.687c-6.249 6.248-16.379 6.248-22.627 0-6.248-6.249-6.248-16.379 0-22.627 9.066-9.067 21.12-14.06 33.941-14.06s24.875 4.993 33.941 14.059c6.249 6.248 6.249 16.379 0 22.627-3.124 3.124-7.219 4.687-11.314 4.687z" fill="#e1322d"/></g><g><path d="m419.882 140.118c-4.095 0-8.189-1.562-11.313-4.686-15.111-15.11-35.2-23.432-56.569-23.432s-41.458 8.322-56.569 23.431c-6.248 6.249-16.378 6.249-22.627 0-6.248-6.248-6.248-16.379 0-22.627 21.154-21.154 49.279-32.804 79.196-32.804s58.042 11.65 79.196 32.804c6.248 6.248 6.248 16.379 0 22.627-3.124 3.125-7.219 4.687-11.314 4.687z" fill="#e1322d"/></g><g><path d="m465.137 94.863c-4.095 0-8.189-1.562-11.313-4.686-27.199-27.198-63.36-42.177-101.824-42.177-38.463 0-74.625 14.979-101.824 42.177-6.248 6.248-16.379 6.248-22.627 0-6.248-6.249-6.248-16.379 0-22.627 33.243-33.243 77.44-51.55 124.451-51.55s91.208 18.307 124.451 51.549c6.249 6.248 6.249 16.379 0 22.627-3.124 3.125-7.219 4.687-11.314 4.687z" fill="#e1322d"/></g></g><g><path d="m329.373 185.373c-4.095 0-8.189-1.562-11.314-4.687-6.248-6.249-6.248-16.379 0-22.627 9.066-9.066 21.12-14.059 33.941-14.059 8.836 0 16 7.163 16 16s-7.164 16-16 16c-4.274 0-8.292 1.664-11.314 4.687-3.124 3.123-7.219 4.686-11.313 4.686z" fill="#f04b37"/></g><g><path d="m284.118 140.118c-4.095 0-8.189-1.562-11.314-4.686-6.248-6.248-6.248-16.379 0-22.627 21.154-21.155 49.279-32.805 79.196-32.805 8.836 0 16 7.163 16 16 0 8.836-7.164 16-16 16-21.369 0-41.458 8.322-56.569 23.431-3.124 3.125-7.219 4.687-11.313 4.687z" fill="#f04b37"/></g><g><path d="m238.863 94.863c-4.095 0-8.189-1.562-11.314-4.686-6.248-6.249-6.248-16.379 0-22.627 33.243-33.243 77.44-51.55 124.451-51.55 8.836 0 16 7.163 16 16s-7.164 16-16 16c-38.463 0-74.625 14.979-101.824 42.177-3.123 3.123-7.219 4.686-11.313 4.686z" fill="#f04b37"/></g></g><g><g><path d="m288 352h56v32h-56z" fill="#f0915a"/></g><g><path d="m300 288c-6.627 0-12 5.373-12 12v52h24v-52c0-6.627-5.373-12-12-12z" fill="#f0915a"/></g><g><path d="m344 368h-24c-4.418 0-8-3.582-8-8v-24h32c4.418 0 8 3.582 8 8v16c0 4.418-3.582 8-8 8z" fill="#fab991"/></g><g><path d="m304 368v-12c0-11.046-8.954-20-20-20-2.209 0-4 1.791-4 4v36c0 4.418 3.582 8 8 8h32c0-8.837-7.163-16-16-16z" fill="#fab991"/></g><g><path d="m288 384h56v16h-56z" fill="#e1322d"/></g></g></g></svg>